<?xml version="1.0" standalone="no"?><!DOCTYPE svg PUBLIC "-//W3C//DTD SVG 1.1//EN" "http://www.w3.org/Graphics/SVG/1.1/DTD/svg11.dtd"><svg t="1564820876928" class="icon" viewBox="0 0 1024 1024" version="1.1" xmlns="http://www.w3.org/2000/svg" p-id="1126" xmlns:xlink="http://www.w3.org/1999/xlink" width="200" height="200"><defs><style type="text/css"></style></defs><path d="M521.216 52.224c-195.584 0-354.816 159.232-354.816 354.816 0 188.928 317.952 524.288 331.264 538.112 6.144 6.656 14.336 10.24 23.552 10.24h0.512c9.216 0 17.408-4.096 23.552-11.264l110.08-125.952c146.432-179.2 220.16-317.44 220.16-411.136 0-195.584-158.72-354.816-354.304-354.816z" fill="#3A79F7" p-id="1127"></path><path d="M641.024 329.728h31.744c22.016 0 30.208-16.384 30.208-30.72 0-16.896-11.264-29.184-30.208-29.184h-45.568v103.424h13.824v-43.52z m0-48.128h27.648c11.264 0 19.968 4.096 19.968 17.408 0 13.824-8.192 18.432-20.48 18.432h-27.136v-35.84z m-225.792 257.024v26.112c0 16.896 15.36 16.384 15.36 16.384 16.896 0 18.432-15.872 18.432-15.872v-27.136H588.8v26.112c0 17.408 17.92 16.384 17.92 16.384 15.872 0 15.872-15.36 15.872-15.36V537.6c24.064 0.512 24.576-27.136 24.576-27.136V448.512c0-28.672-28.672-37.888-28.672-37.888l-6.656-40.96c-4.096-31.232-31.744-31.744-31.744-31.744H466.432c-27.648 0-32.768 23.552-32.768 23.552l-6.144 49.152c-29.184 0-34.304 32.768-34.304 32.768v64.512c0 32.256 22.016 30.72 22.016 30.72z m53.248-73.728c0-2.56 2.048-4.608 4.608-4.608h96.768c2.56 0 4.608 2.048 4.608 4.608s-2.048 4.608-4.608 4.608H473.088c-2.56-0.512-4.608-2.048-4.608-4.608z m5.12 16.384h96.768c2.56 0 4.608 2.048 4.608 4.608s-2.048 4.608-4.608 4.608H473.6c-2.56 0-4.096-2.048-4.096-4.608-0.512-2.56 1.536-4.608 4.096-4.608z m97.792 32.256H474.624c-2.56 0-4.608-2.048-4.608-4.608s2.048-4.608 4.608-4.608h96.768c2.56 0 4.096 2.048 4.096 4.608s-2.048 4.608-4.096 4.608z m32.256-75.264c8.704 0 15.872 7.168 15.872 16.384 0 9.216-7.168 16.384-15.872 16.384s-15.872-7.168-15.872-16.384c0-9.216 7.168-16.384 15.872-16.384zM456.192 372.224s0-9.728 9.216-9.728h108.544s11.776-1.024 13.312 11.264l6.144 36.352H451.072l5.12-37.888z m-17.408 65.024c8.704 0 15.872 7.168 15.872 16.384 0 9.216-7.168 16.384-15.872 16.384-8.704 0-15.872-7.168-15.872-16.384 0-9.216 7.168-16.384 15.872-16.384z m-50.688 151.04v15.36h315.904v-15.36H388.096z" fill="#FFFFFF" p-id="1128"></path></svg>